PathFileType	3	(X/Y/Z)	D:\minhoCalibration\240510\subject4_KPNP\preferred\preferred20.trc
DataRate	CameraRate	NumFrames	NumMarkers	Units	OrigDataRate	OrigDataStartFrame	OrigNumFrames
200.0	200.0	37	10	mm	200.0	345	77	
Frame#	Time	Left_Ankle_Outer1			Left_Ankle_Inner1			Left_Knee_Outer1			Left_Knee_Inner1			Left_Wrist1			Right_Wrist1			Right_Knee_Inner1			Right_Knee_Outer1			Right_Ankle_Inner1			Right_Ankle_Outer1			
		X1	Y1	Z1	X2	Y2	Z2	X3	Y3	Z3	X4	Y4	Z4	X5	Y5	Z5	X6	Y6	Z6	X7	Y7	Z7	X8	Y8	Z8	X9	Y9	Z9	X10	Y10	Z10	
345	1.715	-396.12283	1213.7347	300.87759	-438.96188	1119.4215	294.32254	-255.19997	1069.6259	781.36517	-290.72098	987.91504	755.22626	-379.5235	1236.259	1144.6609	-455.47116	944.39471	1371.4735	-335.53052	573.76886	1121.4282	-328.72232	589.00299	1230.8256	-502.44522	131.73271	1200.1355	-483.40973	137.07249	1253.7928
346	1.72	-380.19666	1219.5518	296.17618	-428.46408	1135.8777	290.62479	-258.80875	1078.5892	776.86511	-301.36969	992.90918	749.91223	-382.71341	1238.0988	1143.701	-453.30963	944.92487	1369.7032	-336.50806	573.18311	1118.0127	-329.63705	588.61249	1227.3813	-503.54135	131.56769	1198.728	-484.44373	137.14581	1252.371
347	1.725	-373.71075	1223.7319	292.84668	-429.93695	1141.7626	291.61966	-261.17496	1089.6239	771.84485	-311.3447	997.40601	744.98584	-386.3204	1239.8412	1142.1276	-450.55286	945.55408	1367.5916	-337.16519	572.51642	1114.687	-330.60815	588.0144	1223.8578	-503.892	131.56407	1197.8984	-485.08719	137.29962	1251.463
348	1.73	-376.70306	1224.7842	290.58194	-434.92194	1136.9958	293.43555	-262.04688	1096.745	767.44153	-316.17761	1003.7549	742.51367	-390.01245	1241.8654	1140.2509	-447.26276	946.24188	1365.1168	-337.57971	571.82648	1111.3784	-331.68896	587.31201	1220.1661	-504.22092	131.47102	1197.5032	-485.10922	137.57443	1250.9796
349	1.735	-390.74722	1219.8088	288.69656	-434.38586	1125.7236	291.40091	-258.83768	1099.6473	764.00562	-311.48444	1006.54	741.07184	-394.27728	1243.6436	1137.8044	-443.54944	946.77332	1362.3447	-337.93451	570.9834	1108.0039	-332.71393	586.51093	1216.4039	-504.10837	131.27382	1197.3514	-484.57584	137.88499	1250.7922
350	1.74	-406.44611	1212.5657	287.70355	-431.69406	1111.7429	289.19312	-255.72589	1102.5188	761.53259	-303.37061	1010.4015	739.93622	-399.34222	1244.8949	1135.1887	-439.59583	947.07971	1359.0854	-338.18005	570.10291	1104.2527	-333.69028	585.87274	1212.6768	-504.02557	131.4612	1197.8092	-483.75681	138.29797	1250.7653
351	1.745	-419.54596	1203.5142	287.40369	-428.09677	1099.9731	285.93176	-253.74237	1104.8519	761.3927	-296.54214	1016.3094	740.04578	-403.94031	1246.2957	1131.8772	-435.63065	947.06128	1355.5479	-339.27899	569.16077	1100.7177	-334.43051	585.25745	1208.8964	-503.75336	131.63263	1198.3713	-482.82333	138.80011	1250.9578
352	1.75	-428.49988	1194.197	285.68094	-427.67874	1090.3601	282.95453	-254.2421	1107.7289	762.92834	-291.18396	1022.9249	740.77808	-409.1221	1247.349	1128.4303	-431.81857	946.7204	1351.7953	-340.3512	568.47406	1096.7994	-334.9263	584.92761	1205.2638	-503.85696	131.87093	1199.1112	-481.6835	139.28624	1251.1284
353	1.755	-435.09213	1183.1063	281.49716	-427.97534	1078.4302	280.68732	-257.39142	1112.7053	765.12982	-288.32059	1029.2708	742.13177	-414.76361	1248.1288	1124.9691	-428.29782	946.14978	1347.6139	-341.63962	568.16364	1092.8103	-335.02753	584.81299	1201.7991	-503.53091	131.8589	1199.4668	-480.60413	139.88771	1251.3252
354	1.76	-440.60532	1171.1626	276.50034	-428.14249	1066.9744	279.11127	-262.88828	1120.3706	766.69293	-286.93268	1035.5271	743.21954	-420.36371	1248.6406	1121.6158	-425.04605	945.27802	1343.5369	-343.27264	568.19318	1088.8201	-334.92664	584.91608	1197.6003	-503.39221	132.16174	1199.9469	-479.45935	140.48299	1251.4354
355	1.765	-444.49551	1158.0724	271.18909	-428.47357	1054.3099	278.58929	-270.56097	1129.7633	766.85852	-286.54156	1041.8741	743.72626	-426.23312	1248.9766	1118.5797	-422.1579	944.38196	1339.7529	-344.7626	568.17731	1084.6678	-334.52444	585.16138	1193.1924	-502.96588	132.47482	1200.4991	-478.30524	141.18912	1251.4635
356	1.77	-448.29224	1143.6196	266.80542	-426.66248	1040.7767	277.40414	-279.49335	1139.4081	765.9516	-286.44348	1047.9534	744.07782	-432.01822	1248.58	1115.7894	-419.5744	943.48956	1335.786	-346.69937	568.3302	1080.7079	-333.59824	585.58557	1188.87	-502.66052	132.87878	1200.8193	-477.28973	141.88693	1251.5238
357	1.775	-452.07059	1128.3022	263.59692	-424.34262	1027.6506	277.01395	-290.64029	1147.9409	763.85144	-286.41321	1053.7135	744.36865	-437.67874	1248.259	1113.3175	-417.45978	942.5282	1331.7302	-348.77249	568.39471	1077.0081	-332.3103	585.98627	1184.5106	-502.25305	133.32904	1200.9242	-476.09082	142.66568	1251.1873
358	1.78	-455.60318	1111.045	260.90375	-419.31735	1013.9194	276.17111	-303.62268	1154.4789	760.52167	-286.51721	1059.417	744.37732	-443.25507	1247.9335	1111.1755	-415.69852	941.52734	1327.37	-350.28564	568.95837	1073.3967	-330.75574	586.20831	1180.1918	-501.73331	133.89389	1200.8232	-475.06134	143.54634	1250.9149
359	1.785	-458.60107	1092.9812	259.04141	-413.45255	1000.2964	275.79736	-317.4801	1158.8698	756.23236	-286.9957	1065.2661	743.61273	-448.95581	1247.7169	1109.3799	-414.13306	940.62872	1323.1049	-351.79495	569.17322	1069.9993	-328.9245	586.55914	1175.9781	-501.10876	134.42711	1200.6941	-473.88452	144.41776	1250.5089
360	1.79	-461.23447	1073.975	257.92209	-407.24042	986.15216	275.86432	-331.03302	1161.1501	751.96936	-288.58884	1070.8502	742.19385	-454.40021	1247.8607	1107.8187	-412.37695	939.72583	1319.0132	-353.58517	569.6875	1067.2147	-327.06339	586.89606	1171.7659	-500.97443	134.96144	1200.6357	-472.71918	145.28575	1250.0475
361	1.795	-463.39841	1054.7219	257.6282	-400.47723	972.53809	275.92563	-343.69186	1161.7053	748.30206	-291.15567	1075.3455	740.71918	-460.09052	1247.8184	1106.4019	-410.31061	938.7229	1315.3582	-354.17822	570.07281	1063.9972	-325.23938	587.43494	1167.8971	-500.36258	135.43594	1200.5825	-471.44571	146.10454	1249.6075
362	1.8	-465.5463	1035.8978	257.74155	-396.05679	958.81036	276.79956	-354.84851	1160.8182	745.0733	-295.21729	1078.4214	738.85437	-465.7363	1247.8781	1105.1776	-407.91794	937.84662	1312.5815	-355.71362	570.5899	1061.7384	-323.21405	587.96869	1164.3943	-499.27069	135.80162	1201.2571	-470.1749	146.79807	1249.4131
363	1.805	-466.61868	1016.6285	257.58282	-390.7262	946.58954	277.85303	-364.76782	1158.7235	741.75195	-299.49942	1079.6129	737.19348	-471.20728	1247.6738	1104.1987	-404.9068	937.32623	1310.1057	-356.38818	570.73657	1059.1154	-321.81812	588.31519	1160.916	-498.92014	136.47862	1201.2378	-468.65955	147.45221	1249.314
364	1.81	-467.10898	997.63055	257.85956	-387.0611	933.23773	279.61749	-372.83423	1155.2412	738.08978	-304.83087	1079.1309	735.78296	-476.36224	1246.8992	1103.3673	-401.24954	937.34015	1307.8462	-357.14929	571.34485	1057.035	-320.42856	588.78094	1157.9812	-497.97922	136.7776	1202.0829	-467.17294	147.93591	1249.5775
365	1.815	-467.1452	978.92676	258.26334	-383.97287	919.55634	281.71722	-380.45932	1151.3354	734.46967	-310.59396	1077.3596	734.37201	-481.53516	1245.765	1102.6267	-397.05331	937.78082	1305.7297	-357.74722	571.50854	1055.0586	-319.11203	589.23212	1155.5151	-496.9433	136.84181	1203.2671	-465.56183	148.28394	1249.9954
366	1.82	-467.98483	960.21698	259.54694	-382.46332	905.19037	284.56412	-386.96704	1146.9797	730.91455	-316.43326	1074.8435	732.97992	-486.31897	1243.9448	1101.8994	-392.68518	938.66528	1303.9595	-358.32874	571.63989	1053.4329	-317.87943	589.40192	1153.3295	-496.15048	136.75496	1204.6263	-463.91562	148.49738	1250.6241
367	1.825	-469.0932	941.12024	261.33704	-381.29071	890.5755	287.84918	-394.04376	1142.0956	727.54608	-322.54117	1071.6318	731.87079	-491.05249	1241.9066	1101.0724	-388.03833	939.89233	1302.4172	-358.56403	571.4975	1051.9282	-316.62479	589.35522	1151.3005	-495.3768	136.66733	1206.0787	-462.24408	148.48431	1251.4176
368	1.83	-470.06635	921.29706	264.35492	-380.06387	875.40088	291.95825	-401.38718	1136.8246	724.302	-328.552	1067.9877	730.97449	-495.75546	1239.5387	1100.252	-383.29132	941.37366	1301.1075	-358.07092	570.94427	1050.0944	-315.44611	589.21558	1149.5024	-494.64304	136.55702	1207.8385	-460.72415	148.32304	1252.4801
369	1.835	-472.54205	900.77069	267.90903	-380.31274	859.74884	296.55005	-408.84305	1131.218	721.34595	-334.47742	1063.8502	730.16205	-500.2594	1237.0923	1099.3997	-378.53	942.90894	1299.8085	-357.75342	570.22699	1048.7933	-314.16751	588.78656	1147.7529	-493.83228	136.10526	1209.2416	-459.31293	147.99803	1253.6987
370	1.84	-473.60287	878.53442	272.46707	-379.05121	844.07416	300.69504	-417.021	1124.9536	718.91949	-340.3721	1059.6666	729.42914	-504.43463	1234.0675	1098.6469	-373.8696	944.51166	1298.5066	-358.19257	569.48486	1048.298	-312.92975	588.10223	1146.0775	-493.31448	135.58992	1211.3868	-458.07562	147.47887	1255.1957
371	1.845	-475.72681	857.12476	278.03018	-379.10522	829.06116	305.0903	-425.17047	1118.8219	716.61212	-346.21109	1055.6248	728.61383	-507.78061	1229.9028	1098.2916	-369.37375	946.06073	1297.2583	-357.90546	567.80707	1047.4088	-311.60675	587.20319	1144.5562	-493.00906	134.98848	1213.5233	-456.93448	146.94165	1256.6888
372	1.85	-478.08063	834.79199	284.14371	-379.71317	812.91876	310.33353	-433.49094	1112.1801	714.4975	-352.05109	1051.7961	727.60028	-511.40399	1226.5094	1097.9841	-365.16702	947.43872	1295.9713	-357.70084	566.20142	1046.8478	-310.30264	585.98206	1143.1096	-491.935	134.15417	1215.4895	-455.95233	146.29742	1258.2286
373	1.855	-480.75864	813.1192	291.17459	-380.87512	796.46222	315.95071	-441.7124	1105.6041	712.44073	-357.34735	1048.2294	726.39478	-514.91418	1222.787	1097.5712	-361.13739	948.56714	1294.7894	-357.38608	564.20282	1046.4017	-308.92789	584.58099	1141.9355	-492.0553	133.31288	1217.3776	-455.10315	145.46071	1259.7007
374	1.86	-482.03592	791.10846	298.92975	-382.45441	779.99402	322.38345	-449.34271	1097.9329	710.92755	-362.93829	1044.8146	724.89191	-518.19843	1219.0575	1097.1813	-357.46729	949.3114	1293.6547	-357.70731	562.03827	1046.5837	-307.634	582.93311	1140.9019	-491.97641	132.47284	1219.6161	-454.51251	144.53473	1261.1899
375	1.865	-486.49353	769.42535	307.95493	-384.44458	762.8938	328.069	-457.15707	1090.3744	709.19739	-368.28568	1041.4771	723.15717	-521.02484	1215.2146	1096.7268	-354.10233	949.77869	1292.5829	-357.53217	560.11127	1046.5226	-306.29709	581.09454	1139.8971	-490.58194	130.71724	1221.3119	-454.19077	143.53568	1262.4722
376	1.87	-489.65012	747.21027	317.58682	-386.83847	745.9812	335.25339	-465.2041	1082.2194	707.81854	-373.93149	1038.1311	720.92041	-523.91754	1211.1659	1096.0093	-351.03561	949.87811	1291.7413	-356.83557	557.81146	1046.179	-304.94501	579.07092	1139.2893	-492.09076	129.89578	1222.8118	-454.15009	142.37538	1263.6781
377	1.875	-492.71832	724.81763	327.76886	-389.82712	728.57928	342.85641	-472.76755	1073.6666	706.56042	-379.34702	1034.4449	718.46643	-526.87964	1207.2593	1095.1829	-348.21573	949.5896	1290.9136	-357.17853	555.5083	1046.7019	-303.47351	577.01794	1138.9258	-492.40323	128.76445	1224.8441	-454.34674	141.1469	1264.8301
378	1.88	-496.17206	702.98859	338.94498	-393.2298	710.96344	350.78683	-480.1445	1064.3828	705.55054	-385.05481	1030.1411	715.80969	-529.50189	1203.1921	1094.2772	-345.49127	949.27765	1290.9135	-357.08347	553.12848	1046.9238	-302.12686	574.82104	1138.7687	-492.90302	127.51376	1226.5802	-454.793	139.8286	1265.9805
379	1.885	-500.53857	681.05713	350.73358	-397.31729	692.99481	359.02621	-487.95346	1054.9996	704.96472	-390.41263	1025.9822	713.40765	-531.97668	1199.4503	1093.2061	-343.16711	948.45099	1290.3169	-356.36978	551.11035	1046.8972	-300.86087	572.43634	1138.66	-493.62241	125.72764	1227.781	-455.45441	138.44608	1267.1331
380	1.89	-504.80002	660.17029	363.14307	-401.85352	674.67084	367.85916	-494.8132	1045.4062	704.2066	-396.65311	1019.8095	710.74493	-534.49463	1195.5024	1092.0438	-341.12354	947.47546	1289.8076	-355.90198	549.00977	1047.171	-299.60281	570.06488	1138.7095	-494.82465	124.23222	1228.972	-456.29297	136.98117	1268.2639
381	1.895	-508.27313	638.30322	375.16873	-407.14771	655.98108	377.13016	-500.72586	1034.9087	703.99109	-402.11234	1013.4554	708.50647	-536.98535	1191.3525	1091.0314	-339.32431	946.4032	1289.1804	-355.40125	546.64343	1047.3468	-298.45236	567.68524	1138.7765	-495.78931	122.26854	1229.9644	-457.33344	135.33307	1269.2676
